<svg width="512" height="512" viewBox="0 0 512 512" xmlns="http://www.w3.org/2000/svg">
  <defs>
    <linearGradient id="bg1" x1="0" y1="0" x2="1" y2="1">
      <stop offset="0" stop-color="#4f7cff"/>
      <stop offset="1" stop-color="#8a4dff"/>
    </linearGradient>
    <linearGradient id="fold1" x1="0" y1="0" x2="0" y2="1">
      <stop offset="0" stop-color="#ffffff"/>
      <stop offset="1" stop-color="#dfe7ff"/>
    </linearGradient>
  </defs>
  <rect x="32" y="32" width="448" height="448" rx="104" fill="url(#bg1)"/>
  <path d="M120 168 h96 l32 36 h144 a28 28 0 0 1 28 28 v120 a28 28 0 0 1 -28 28 H120 a28 28 0 0 1 -28 -28 V196 a28 28 0 0 1 28 -28 z" fill="url(#fold1)"/>
  <path d="M300 196 l20 40 44 6 -32 31 8 44 -40 -21 -40 21 8 -44 -32 -31 44 -6 z" fill="#ffd24d"/>
</svg>
