<svg width="512" height="512" viewBox="0 0 512 512" xmlns="http://www.w3.org/2000/svg">
  <defs>
    <linearGradient id="bg2" x1="0" y1="0" x2="1" y2="1">
      <stop offset="0" stop-color="#15c5b8"/>
      <stop offset="1" stop-color="#2f6bff"/>
    </linearGradient>
  </defs>
  <rect x="32" y="32" width="448" height="448" rx="104" fill="url(#bg2)"/>
  <path d="M188 132 h150 a18 18 0 0 1 18 18 v36 a18 18 0 0 1 -18 18 H244 v54 h74 a18 18 0 0 1 18 18 v34 a18 18 0 0 1 -18 18 h-74 v76 a18 18 0 0 1 -18 18 h-40 a18 18 0 0 1 -18 -18 V150 a18 18 0 0 1 18 -18 z" fill="#ffffff"/>
  <circle cx="346" cy="360" r="26" fill="#ffffff" opacity="0.85"/>
</svg>
